<svg xmlns="http://www.w3.org/2000/svg" xmlns:xlink="http://www.w3.org/1999/xlink" style="display: block !important; height: 0 !important; width: 0 !important;" width="0" height="0">
<defs>
        <clipPath id="icon-arrow-left_clip0_136_26">
            <path transform="matrix(-1 0 0 1 20.391 .882)" fill="#fff" d="M0 0h19.435v19.435H0z"/>
        </clipPath>
    
        <clipPath id="icon-arrow-right_clip0_136_30">
            <path transform="translate(.883 .882)" fill="#fff" d="M0 0h19.435v19.435H0z"/>
        </clipPath>
    
        <linearGradient id="icon-book_paint0_linear_136_108" x1="0" x2="50" y1="25" y2="25" gradientUnits="userSpaceOnUse">
            <stop stop-color="#00C0F3" offset="0"/>
            <stop stop-color="#3997D3" offset="1"/>
        </linearGradient>
        <clipPath id="icon-book_clip0_136_108">
            <path fill="#fff" d="M0 0h50v50H0z"/>
        </clipPath>
    
        <linearGradient id="icon-building_paint0_linear_136_101" x1="0" x2="50" y1="25" y2="25" gradientUnits="userSpaceOnUse">
            <stop stop-color="#00C0F3" offset="0"/>
            <stop stop-color="#3997D3" offset="1"/>
        </linearGradient>
        <clipPath id="icon-building_clip0_136_101">
            <path fill="#fff" d="M0 0h50v50H0z"/>
        </clipPath>
    
        <linearGradient id="icon-comp_paint0_linear_1_1685" x1="0" x2="50" y1="25" y2="25" gradientUnits="userSpaceOnUse">
            <stop stop-color="#00C0F3" offset="0"/>
            <stop stop-color="#3997D3" offset="1"/>
        </linearGradient>
        <clipPath id="icon-comp_clip0_1_1685">
            <path fill="#fff" d="M0 0h50v50H0z"/>
        </clipPath>
    
        <clipPath id="icon-idea_clip0_1_1671">
            <path fill="#fff" d="M0 0h50v50H0z"/>
        </clipPath>
        <clipPath id="icon-idea_clip1_1_1671">
            <path transform="translate(12 11)" fill="#fff" d="M0 0h26v26H0z"/>
        </clipPath>
        <linearGradient id="icon-idea_paint0_linear_1_1671" x1="0" x2="50" y1="25" y2="25" gradientUnits="userSpaceOnUse">
            <stop stop-color="#00C0F3" offset="0"/>
            <stop stop-color="#3997D3" offset="1"/>
        </linearGradient>
    
        <linearGradient id="icon-like_paint0_linear_1_1696" x1="0" x2="50" y1="25" y2="25" gradientUnits="userSpaceOnUse">
            <stop stop-color="#00C0F3" offset="0"/>
            <stop stop-color="#3997D3" offset="1"/>
        </linearGradient>
        <clipPath id="icon-like_clip0_1_1696">
            <path fill="#fff" d="M0 0h50v50H0z"/>
        </clipPath>
    
        <linearGradient id="icon-mail_paint0_linear_1_402" x1="0" x2="50" y1="25" y2="25" gradientUnits="userSpaceOnUse">
            <stop stop-color="#00C0F3" offset="0"/>
            <stop stop-color="#3997D3" offset="1"/>
        </linearGradient>
        <clipPath id="icon-mail_clip0_1_402">
            <path fill="#fff" d="M0 0h50v50H0z"/>
        </clipPath>
    
        <linearGradient id="icon-medal_paint0_linear_136_88" x1="0" x2="50" y1="25" y2="25" gradientUnits="userSpaceOnUse">
            <stop stop-color="#00C0F3" offset="0"/>
            <stop stop-color="#3997D3" offset="1"/>
        </linearGradient>
        <clipPath id="icon-medal_clip0_136_88">
            <path fill="#fff" d="M0 0h50v50H0z"/>
        </clipPath>
    
        <clipPath id="icon-message_clip0_1_391">
            <path fill="#fff" d="M0 0h50v50H0z"/>
        </clipPath>
        <clipPath id="icon-message_clip1_1_391">
            <path transform="translate(12 12)" fill="#fff" d="M0 0h26v26H0z"/>
        </clipPath>
        <linearGradient id="icon-message_paint0_linear_1_391" x1="0" x2="50" y1="25" y2="25" gradientUnits="userSpaceOnUse">
            <stop stop-color="#00C0F3" offset="0"/>
            <stop stop-color="#3997D3" offset="1"/>
        </linearGradient>
    
        <filter id="icon-play-btn_filter0_f_108_24" x=".451" y=".484" width="463.56" height="463.56" color-interpolation-filters="sRGB" filterUnits="userSpaceOnUse">
            <feFlood flood-opacity="0" result="BackgroundImageFix"/>
            <feBlend in="SourceGraphic" in2="BackgroundImageFix" result="shape"/>
            <feGaussianBlur result="effect1_foregroundBlur_108_24" stdDeviation="77.003"/>
        </filter>
    
        <clipPath id="icon-radio_clip0_1_410">
            <path fill="#fff" d="M0 0h50v50H0z"/>
        </clipPath>
        <clipPath id="icon-radio_clip1_1_410">
            <path transform="translate(12 15)" fill="#fff" d="M0 0h27v20H0z"/>
        </clipPath>
        <linearGradient id="icon-radio_paint0_linear_1_410" x1="0" x2="50" y1="25" y2="25" gradientUnits="userSpaceOnUse">
            <stop stop-color="#00C0F3" offset="0"/>
            <stop stop-color="#3997D3" offset="1"/>
        </linearGradient>
    
        <clipPath id="icon-team_clip0_1_1704">
            <path fill="#fff" d="M0 0h50v50H0z"/>
        </clipPath>
        <clipPath id="icon-team_clip1_1_1704">
            <path transform="translate(12 12)" fill="#fff" d="M0 0h26v26H0z"/>
        </clipPath>
        <linearGradient id="icon-team_paint0_linear_1_1704" x1="0" x2="50" y1="25" y2="25" gradientUnits="userSpaceOnUse">
            <stop stop-color="#00C0F3" offset="0"/>
            <stop stop-color="#3997D3" offset="1"/>
        </linearGradient>
    
        <linearGradient id="icon-tel_paint0_linear_1_421" x1="0" x2="50" y1="25" y2="25" gradientUnits="userSpaceOnUse">
            <stop stop-color="#00C0F3" offset="0"/>
            <stop stop-color="#3997D3" offset="1"/>
        </linearGradient>
        <clipPath id="icon-tel_clip0_1_421">
            <path fill="#fff" d="M0 0h50v50H0z"/>
        </clipPath>
    
        <clipPath id="icon-world_clip0_1_533">
            <path transform="rotate(75 91.936 121.115)" fill="#fff" d="M0 0h190.66v190.66H0z"/>
        </clipPath>
    </defs>
<symbol id="icon-arrow-down" viewBox="0 0 25 15">
    <path d="M21.458.643c.833-.857 2.083-.857 2.917 0 .833.857.833 2.143 0 3L13.958 14.357c-.834.857-2.084.857-2.917 0L.624 3.643c-.833-.857-.833-2.143 0-3 .833-.857 2.083-.857 2.917 0l8.958 9.214L21.457.643z" fill="#000"/>
</symbol>
<symbol id="icon-arrow-left" viewBox="0 0 21 21">
    <g clip-path="url(#icon-arrow-left_clip0_136_26)">
        <path d="M7.303 3.972a.686.686 0 01.98 0 .691.691 0 010 .97L3.317 9.908h16.388c.382 0 .685.304.685.686a.69.69 0 01-.685.696H3.317l4.966 4.957a.703.703 0 010 .98.686.686 0 01-.98 0l-6.142-6.143a.675.675 0 010-.97l6.143-6.142z" fill="#90979C"/>
    </g>
    
</symbol>
<symbol id="icon-arrow-right" viewBox="0 0 21 21">
    <g clip-path="url(#icon-arrow-right_clip0_136_30)">
        <path d="M13.97 3.972a.686.686 0 00-.98 0 .691.691 0 000 .97l4.967 4.966H1.569a.682.682 0 00-.686.686.69.69 0 00.686.696h16.388l-4.966 4.957a.703.703 0 000 .98.686.686 0 00.979 0l6.142-6.143a.675.675 0 000-.97L13.97 3.973z" fill="#90979C"/>
    </g>
    
</symbol>
<symbol id="icon-book" viewBox="0 0 50 50">
    <g clip-path="url(#icon-book_clip0_136_108)">
        <path d="M25 50c13.807 0 25-11.193 25-25S38.807 0 25 0 0 11.193 0 25s11.193 25 25 25z" fill="url(#icon-book_paint0_linear_136_108)"/>
        <path d="M14.062 15.394v19.252c3.656-.523 7.554.073 11.23 1.707V17.101c-3.676-1.634-7.575-2.23-11.23-1.707zm9.575 17.549c-2.48-1.171-5.098-1.603-7.571-1.25l-.138-.966c2.66-.381 5.472.08 8.126 1.333l-.417.883zm0-3.915c-2.48-1.17-5.098-1.603-7.571-1.25l-.138-.966c2.66-.38 5.472.08 8.126 1.333l-.417.883zm0-3.914c-2.48-1.171-5.098-1.603-7.571-1.25l-.138-.966c2.66-.381 5.472.08 8.126 1.333l-.417.883zm.417-4.798l-.417.883c-2.48-1.171-5.097-1.603-7.571-1.25l-.138-.966c2.66-.38 5.472.08 8.126 1.333zM33.856 15.249v7.381l-2.215-1.661-2.215 1.661v-6.653a22.602 22.602 0 00-3.156 1.124v19.252c3.676-1.634 7.574-2.23 11.23-1.707V15.394a18.742 18.742 0 00-3.644-.145z" fill="#000" opacity=".3"/>
        <path d="M13.281 14.612v19.252c3.656-.523 7.554.073 11.23 1.707V16.32c-3.676-1.634-7.574-2.23-11.23-1.707zm9.575 17.549c-2.48-1.171-5.098-1.603-7.57-1.25l-.14-.966c2.662-.381 5.473.08 8.127 1.333l-.417.883zm0-3.915c-2.48-1.17-5.098-1.603-7.57-1.25l-.14-.966c2.662-.38 5.473.08 8.127 1.333l-.417.883zm0-3.914c-2.48-1.171-5.098-1.603-7.57-1.25l-.14-.966c2.662-.381 5.473.08 8.127 1.333l-.417.883zm.417-4.798l-.417.883c-2.48-1.171-5.097-1.603-7.57-1.25l-.14-.966c2.662-.38 5.473.08 8.127 1.333zM33.075 14.467v7.381l-2.215-1.661-2.215 1.661v-6.653a22.605 22.605 0 00-3.156 1.124v19.252c3.676-1.634 7.574-2.23 11.23-1.707V14.612a18.735 18.735 0 00-3.644-.145z" fill="#fff"/>
    </g>
    
</symbol>
<symbol id="icon-building" viewBox="0 0 50 50">
    <g clip-path="url(#icon-building_clip0_136_101)">
        <path d="M25 50c13.807 0 25-11.193 25-25S38.807 0 25 0 0 11.193 0 25s11.193 25 25 25z" fill="url(#icon-building_paint0_linear_136_101)"/>
        <path d="M36.524 33.518H35.13V22.334h1.93l-11.278-8.271-11.278 8.271h1.93v11.184h-1.393a.976.976 0 00-.976.977v3.004H37.5v-3.004a.976.976 0 00-.977-.977zm-2.37 0h-2.567V22.334h2.567v11.184zm-9.655-11.184h2.567v11.184H24.5V22.334zm-.977 11.184h-2.567V22.334h2.567v11.184zm4.52-11.184h2.568v11.184h-2.567V22.334zm-2.26-4.91c.832 0 1.506.668 1.506 1.492 0 .823-.674 1.491-1.505 1.491a1.498 1.498 0 01-1.506-1.491c0-.824.674-1.492 1.506-1.492zm-8.37 4.91h2.567v11.184H17.41V22.334z" fill="#000" opacity=".3"/>
        <path d="M35.742 32.737h-1.394V21.553h1.93L25 13.282l-11.278 8.271h1.93v11.184H14.26a.977.977 0 00-.977.977v3.004h23.436v-3.005a.977.977 0 00-.976-.976zm-2.37 0h-2.567V21.553h2.567v11.184zm-9.655-11.184h2.567v11.184h-2.567V21.553zm-.977 11.184h-2.567V21.553h2.567v11.184zm4.52-11.184h2.568v11.184h-2.567V21.553zM25 16.643c.832 0 1.506.668 1.506 1.492 0 .823-.674 1.491-1.505 1.491a1.498 1.498 0 01-1.506-1.491c0-.824.674-1.492 1.506-1.492zm-8.37 4.91h2.567v11.184h-2.568V21.553z" fill="#fff"/>
    </g>
    
</symbol>
<symbol id="icon-comp" viewBox="0 0 50 50">
    <g clip-path="url(#icon-comp_clip0_1_1685)">
        <path d="M25 50c13.807 0 25-11.193 25-25S38.807 0 25 0 0 11.193 0 25s11.193 25 25 25z" fill="url(#icon-comp_paint0_linear_1_1685)"/>
        <g fill="#fff">
            <path d="M17.383 35.756h20.373V32.75l-2.336-4.408-1.381.731 2.153 4.063v1.056h-3.453l.812-9.75H16.204l1.178 11.314zm14.483-9.75l-.69 8.186H18.783l-.853-8.186h13.934zM30.444 17.719a5.444 5.444 0 10-10.888 0 5.444 5.444 0 0010.888 0zm-9.344 0a3.901 3.901 0 017.8 0 3.901 3.901 0 01-7.8 0zM15.941 29.094l-1.381-.731-2.336 4.387v3.007h3.433v-1.544h-1.87v-1.056l2.154-4.063z"/>
            <path d="M24.797 30.719a.813.813 0 100-1.625.813.813 0 000 1.625z"/>
        </g>
    </g>
    
</symbol>
<symbol id="icon-idea" viewBox="0 0 50 50">
    <g clip-path="url(#icon-idea_clip0_1_1671)">
        <path d="M25 50c13.807 0 25-11.193 25-25S38.807 0 25 0 0 11.193 0 25s11.193 25 25 25z" fill="url(#icon-idea_paint0_linear_1_1671)"/>
        <g clip-path="url(#icon-idea_clip1_1_1671)" stroke="#fff" stroke-linejoin="round" stroke-miterlimit="10" stroke-width="2">
            <path d="M25.812 36.188h-1.625a1.625 1.625 0 01-1.625-1.625v-1.625h4.875v1.625c0 .898-.727 1.625-1.625 1.625zM30.688 24a6.501 6.501 0 01-2.6 5.2l-.65.487v3.25h-4.875v-3.25l-.65-.487a6.501 6.501 0 01-2.6-5.2 5.688 5.688 0 0111.375 0zM25 15.875v-3.25M19.256 18.255l-2.299-2.299M30.744 18.255l2.299-2.299M16.875 24h-3.25M33.125 24h3.25"/>
        </g>
    </g>
    
</symbol>
<symbol id="icon-like" viewBox="0 0 50 50">
    <g clip-path="url(#icon-like_clip0_1_1696)">
        <path d="M25 50c13.807 0 25-11.193 25-25S38.807 0 25 0 0 11.193 0 25s11.193 25 25 25z" fill="url(#icon-like_paint0_linear_1_1696)"/>
        <path d="M31.273 32.742a1.386 1.386 0 01-1.383 1.148H18.968v1.875H29.89a3.293 3.293 0 003.235-2.695l1.5-8.437a3.302 3.302 0 00-.703-2.672 3.274 3.274 0 00-2.508-1.172h-3.727a28.96 28.96 0 00.961-3.797l.14-.984a2.805 2.805 0 00-2.39-3.165c-.75-.093-1.476.094-2.086.54s-.984 1.125-1.102 1.851l-.14.938c-.023.117-.047.234-.047.351l-.07.352c-.727 3.422-3.446 6.187-6.961 7.078l-1.242.305v11.508h1.875V25.71c4.101-1.102 7.312-4.383 8.18-8.438.023-.14.046-.281.093-.422l.07-.422.141-.937a.813.813 0 01.375-.61c.21-.14.445-.21.703-.187a.93.93 0 01.797 1.055l-.117.914c-.492 2.718-1.172 4.289-1.29 4.593l-.07.188v1.219h5.977c.422 0 .82.187 1.078.492.258.328.375.75.305 1.148l-1.594 8.438z" fill="#fff"/>
    </g>
    
</symbol>
<symbol id="icon-mail" viewBox="0 0 50 50">
    <g clip-path="url(#icon-mail_clip0_1_402)">
        <path d="M25 50c13.807 0 25-11.193 25-25S38.807 0 25 0 0 11.193 0 25s11.193 25 25 25z" fill="url(#icon-mail_paint0_linear_1_402)"/>
        <path d="M37.797 15.25H12.203v1.36L25 28.759l11.172-10.603v14.97H13.828V22.156h-1.625V34.75h25.594v-19.5zM25 26.523l-10.156-9.648h20.312L25 26.523z" fill="#fff"/>
    </g>
    
</symbol>
<symbol id="icon-medal" viewBox="0 0 50 50">
    <g clip-path="url(#icon-medal_clip0_136_88)">
        <path d="M25 50c13.807 0 25-11.193 25-25S38.807 0 25 0 0 11.193 0 25s11.193 25 25 25z" fill="url(#icon-medal_paint0_linear_136_88)"/>
        <g fill="#000">
            <path d="M23.592 20.675l-3.125-6.612-6.402.027 4.655 9.848a8.915 8.915 0 014.872-3.263zM32.846 23.935l4.653-9.845-6.402-.026-3.125 6.61a8.914 8.914 0 014.874 3.261z" opacity=".3"/>
            <path d="M25.785 21.364c-4.384 0-7.937 3.612-7.937 8.068 0 4.455 3.553 8.067 7.937 8.067s7.937-3.612 7.937-8.067c0-4.456-3.553-8.068-7.937-8.068zm2.719 12.111l-2.719-1.31-2.719 1.31.387-3.033-2.067-2.223 2.957-.564 1.442-2.685 1.442 2.685 2.957.564-2.066 2.223.386 3.033z" opacity=".3"/>
        </g>
        <g fill="#fff">
            <path d="M22.81 19.894l-3.125-6.612-6.402.027 4.654 9.848a8.915 8.915 0 014.873-3.263zM32.065 23.153l4.653-9.845-6.402-.026-3.125 6.61a8.915 8.915 0 014.874 3.261z"/>
            <path d="M25.004 20.582c-4.384 0-7.937 3.612-7.937 8.068 0 4.455 3.553 8.068 7.937 8.068s7.937-3.613 7.937-8.068c0-4.456-3.553-8.068-7.937-8.068zm2.719 12.111l-2.719-1.31-2.719 1.31.386-3.033-2.066-2.223 2.957-.564 1.442-2.685 1.441 2.685 2.958.564-2.066 2.223.386 3.033z"/>
        </g>
    </g>
    
</symbol>
<symbol id="icon-message" viewBox="0 0 50 50">
    <g clip-path="url(#icon-message_clip0_1_391)">
        <path d="M25 50c13.807 0 25-11.193 25-25S38.807 0 25 0 0 11.193 0 25s11.193 25 25 25z" fill="url(#icon-message_paint0_linear_1_391)"/>
        <g clip-path="url(#icon-message_clip1_1_391)" fill="#fff">
            <path d="M17.423 33.734h15.498v-1.625H16.732l-2.905 3.047V17.078h-1.625v20.719h1.361l3.86-4.063z"/>
            <path d="M16.266 29.672h16.108l4.062 4.063h1.361V12.202h-21.53v17.47zm1.625-15.844h18.281v17.327l-3.108-3.108H17.89V13.828z"/>
            <path d="M32.922 18.297H21.141v1.625h11.781v-1.625zM32.922 21.953H21.141v1.625h11.781v-1.625z"/>
        </g>
    </g>
    
</symbol>
<symbol id="icon-percent" viewBox="0 0 158 158">
    <path d="M53.383 154.49L3.198 104.302a10.92 10.92 0 010-15.44l52.167-52.159a10.927 10.927 0 017.642-3.2l50.824-.367a10.921 10.921 0 0110.998 11.052l-.617 50.522a10.9 10.9 0 01-3.198 7.588l-52.2 52.2a10.919 10.919 0 01-15.431-.008z" fill="#FAA307"/>
    <path d="M154.48 65.707l-35.156-36.021a10.876 10.876 0 00-15.527-.038L68.263 65.699a10.875 10.875 0 00-3.13 7.634v73.48a10.874 10.874 0 0010.876 10.874h70.687a10.87 10.87 0 0010.875-10.875V73.303a10.873 10.873 0 00-3.091-7.596zm-43.127 15.856a13.596 13.596 0 01-12.56-8.392 13.594 13.594 0 1112.56 8.392z" fill="#FFD100"/>
    <path d="M111.35 0a36.037 36.037 0 00-35.915 33.414l8.183-.082a27.865 27.865 0 0155.598 2.692 27.905 27.905 0 01-14.572 24.47c-.49.271-.979.516-1.468.76a27.84 27.84 0 01-23.653 0 13.665 13.665 0 00-1.767 6.716c0 .481.027.962.082 1.44a35.413 35.413 0 0013.512 2.638c4.503.01 8.967-.83 13.159-2.474.109-.055.245-.082.353-.136a36.036 36.036 0 0021.853-40.286A36.032 36.032 0 00111.35 0z" fill="#212529"/>
    <g fill="#fff">
        <path d="M103.88 108.75a8.157 8.157 0 10-.001-16.313 8.157 8.157 0 00.001 16.313zM136.51 141.38a8.157 8.157 0 10-.001-16.313 8.157 8.157 0 00.001 16.313zM99.806 137.3a5.733 5.733 0 01.025-8.131l32.834-32.416a5.44 5.44 0 017.623.066 5.436 5.436 0 01.065 7.623l-32.416 32.834a5.732 5.732 0 01-8.13.024zM69.761 142.84c-3.425 0-6.41-.463-8.955-1.389s-4.675-2.199-6.387-3.82a17.302 17.302 0 01-3.888-5.694c-.925-2.222-1.48-4.607-1.666-7.153-.046-1.25-.093-2.731-.139-4.444v-5.139a493.6 493.6 0 01.14-4.583c.184-2.547.74-4.885 1.665-7.014a16.483 16.483 0 014.096-5.625c1.759-1.62 3.888-2.87 6.387-3.75 2.499-.926 5.415-1.39 8.747-1.39 3.286 0 6.178.464 8.678 1.39 2.545.88 4.674 2.13 6.386 3.75a15.714 15.714 0 014.027 5.625c.972 2.129 1.55 4.467 1.735 7.014.093 1.296.14 2.824.14 4.583v5.139c0 1.713-.047 3.194-.14 4.444-.185 2.546-.74 4.931-1.666 7.153a16.008 16.008 0 01-3.887 5.694c-1.713 1.621-3.842 2.894-6.387 3.82-2.546.926-5.508 1.389-8.886 1.389zm0-11.875c1.851 0 3.17-.602 3.957-1.806.833-1.204 1.296-2.778 1.388-4.722.047-1.343.07-2.801.07-4.375a80.455 80.455 0 000-4.722c0-1.621-.023-3.056-.07-4.306-.092-1.852-.532-3.379-1.319-4.583-.786-1.25-2.129-1.898-4.026-1.945-1.897.047-3.24.695-4.027 1.945-.786 1.204-1.226 2.731-1.318 4.583-.047 1.25-.093 2.685-.14 4.306v4.722c.047 1.574.093 3.032.14 4.375.092 1.944.532 3.518 1.318 4.722.834 1.204 2.176 1.806 4.027 1.806z"/>
    </g>
</symbol>
<symbol id="icon-play-btn" viewBox="0 0 465 465">
    <g filter="url(#icon-play-btn_filter0_f_108_24)">
        <circle cx="232.23" cy="232.26" r="77.773" fill="#00C0F3"/>
    </g>
    <path d="M261.49 225.95c3.08 1.779 3.08 6.224 0 8.003l-39.271 22.673c-3.081 1.779-6.931-.444-6.931-4.001v-45.347c0-3.556 3.85-5.779 6.931-4.001l39.271 22.673z" fill="#fff"/>
    
</symbol>
<symbol id="icon-radio" viewBox="0 0 50 50">
    <g clip-path="url(#icon-radio_clip0_1_410)">
        <path d="M25 50c13.807 0 25-11.193 25-25S38.807 0 25 0 0 11.193 0 25s11.193 25 25 25z" fill="url(#icon-radio_paint0_linear_1_410)"/>
        <g clip-path="url(#icon-radio_clip1_1_410)" fill="#fff">
            <path d="M12.211 21.406h24.891v12.188H13.899V22.969h-1.688v11.875H38.79V15.156H12.211v6.25zm1.688-5h23.203v3.75H13.899v-3.75z"/>
            <path d="M17.273 17.656h-1.688v1.25h1.688v-1.25zM20.648 17.656H18.96v1.25h1.688v-1.25zM35.414 17.656h-8.86v1.25h8.86v-1.25z"/>
        </g>
    </g>
    
</symbol>
<symbol id="icon-team" viewBox="0 0 50 50">
    <g clip-path="url(#icon-team_clip0_1_1704)">
        <path d="M25 50c13.807 0 25-11.193 25-25S38.807 0 25 0 0 11.193 0 25s11.193 25 25 25z" fill="url(#icon-team_paint0_linear_1_1704)"/>
        <g clip-path="url(#icon-team_clip1_1_1704)" fill="#fff">
            <path d="M30.484 21.141h-1.625v5.688h-2.031v9.343H24.39V26.83H22.36V21.14h-1.625v7.313h2.031v9.343h5.688v-9.343h2.031V21.14zM22.766 15.047a2.852 2.852 0 002.844 2.844c1.564 0 2.844-1.28 2.844-2.844s-1.28-2.844-2.844-2.844a2.852 2.852 0 00-2.844 2.844zm4.063 0c0 .67-.549 1.219-1.22 1.219s-1.218-.549-1.218-1.219.548-1.219 1.219-1.219 1.219.549 1.219 1.219zM15.859 17.078a2.852 2.852 0 002.844 2.844 2.852 2.852 0 002.844-2.844 2.852 2.852 0 00-2.844-2.844 2.852 2.852 0 00-2.844 2.844zm4.063 0c0 .67-.549 1.219-1.22 1.219s-1.218-.549-1.218-1.219.548-1.219 1.219-1.219 1.219.549 1.219 1.219zM34.953 28.86h-2.031v7.313h-3.25v1.624h4.875v-7.312h2.031V22.36h-1.625v6.5zM29.672 17.078a2.852 2.852 0 002.844 2.844 2.852 2.852 0 002.844-2.844 2.852 2.852 0 00-2.844-2.844 2.852 2.852 0 00-2.844 2.844zm2.844-1.219c.67 0 1.219.549 1.219 1.219s-.549 1.219-1.22 1.219-1.218-.549-1.218-1.219.548-1.219 1.219-1.219zM18.297 28.86h-2.031v-6.5H14.64v8.125h2.031v7.313h4.875v-1.626h-3.25V28.86z"/>
        </g>
    </g>
    
</symbol>
<symbol id="icon-tel" viewBox="0 0 50 50">
    <g clip-path="url(#icon-tel_clip0_1_421)">
        <path d="M25 50c13.807 0 25-11.193 25-25S38.807 0 25 0 0 11.193 0 25s11.193 25 25 25z" fill="url(#icon-tel_paint0_linear_1_421)"/>
        <path d="M22.766 14.641h-9.344v.813c0 11.638 9.486 21.124 21.125 21.124h.813v-9.343h-8.41l-3.94 3.94a19.707 19.707 0 01-4.51-4.672l4.266-4.265V14.64zm4.855 14.219h6.114v6.074a19.327 19.327 0 01-9.344-2.844l3.23-3.23zm-6.48-7.292l-3.534 3.534a19.18 19.18 0 01-2.54-8.836h6.074v5.302z" fill="#fff"/>
    </g>
    
</symbol>
<symbol id="icon-wife" viewBox="0 0 180 180">
    <path d="M154.69 64.688H25.31a5.625 5.625 0 00-5.625 5.625v95.626h140.62V70.313a5.624 5.624 0 00-5.624-5.625z" fill="#DFDFDF"/>
    <path d="M98.992 165.94h61.32v-53.485a107.202 107.202 0 01-61.32 53.485z" fill="#BEBEBE"/>
    <path d="M56.25 90H45v19.688h90V90H56.25z" fill="#31C292"/>
    <path d="M64.688 8.438a8.438 8.438 0 00-8.438 8.437v81.562h67.5V16.875a8.438 8.438 0 018.439-8.437h-67.5z" fill="#338DBF"/>
    <path d="M140.62 45V16.875a8.438 8.438 0 00-16.875 0v36.562h25.312a8.43 8.43 0 01-5.966-2.471 8.445 8.445 0 01-2.471-5.967z" fill="#0071AF"/>
    <path d="M164.53 16.875a7.032 7.032 0 017.031 7.031v15.47h-14.062v-15.47a7.033 7.033 0 017.031-7.031z" fill="#00A16C"/>
    <path d="M165.94 171.56H14.06a5.624 5.624 0 01-5.625-5.624v-11.25h62.358a5.618 5.618 0 013.978 1.647l2.33 2.33a5.618 5.618 0 003.977 1.647h17.84a5.623 5.623 0 003.978-1.647l2.329-2.33a5.625 5.625 0 013.978-1.647h62.357v11.25a5.625 5.625 0 01-5.624 5.624z" fill="#BEBEBE"/>
    <path d="M140.62 16.875V45a8.438 8.438 0 0016.875 0V23.906a7.033 7.033 0 017.031-7.031H140.62z" fill="#5CA4CC"/>
    <path d="M164.53 16.875a7.032 7.032 0 00-7.031 7.031v15.47h14.062v-15.47a7.03 7.03 0 00-7.031-7.031z" fill="#0071AF"/>
    <g fill="#00B378">
        <path d="M91.989 147.07a2.81 2.81 0 00-3.977 0l-3.978-3.978A8.443 8.443 0 0190 140.621a8.437 8.437 0 015.966 2.471l-3.977 3.978zM99.943 139.12a14.066 14.066 0 00-15.325-3.049 14.066 14.066 0 00-4.562 3.049l-3.978-3.978a19.683 19.683 0 0113.921-5.766 19.68 19.68 0 0113.921 5.766l-3.977 3.978z"/>
        <path d="M107.9 131.16a25.308 25.308 0 00-27.585-5.487 25.302 25.302 0 00-8.212 5.487l-3.978-3.978a30.953 30.953 0 0121.876-9.061 30.94 30.94 0 0121.876 9.061l-3.977 3.978z"/>
    </g>
    <g fill="#7DB6D6">
        <path d="M64.688 33.75v39.375h50.624V33.75H64.688zm45 11.25h-8.438v-5.625h8.438V45zm-8.438 5.625h8.438v5.625h-8.438v-5.625zm-5.625 5.625H70.313v-5.625h25.312v5.625zm0-16.875V45H70.313v-5.625h25.312zm-25.312 22.5h25.312V67.5H70.313v-5.625zm30.938 5.625v-5.625h8.438V67.5h-8.438zM92.812 81.562H64.687v5.625h28.125v-5.625zM106.88 19.688H73.13v5.625h33.75v-5.625z"/>
    </g>
    <path d="M64.688 171.56h101.25a5.625 5.625 0 005.625-5.624v-11.25h-49.212a106.38 106.38 0 01-57.662 16.874z" fill="#A2A2A2"/>
    <path d="M56.25 98.438h67.5v-67.5c0 37.279-30.221 67.5-67.5 67.5z" fill="#2C78A3"/>
    <path d="M140.62 28.125V45a8.443 8.443 0 005.206 7.794 8.44 8.44 0 009.194-1.825 25.317 25.317 0 01-14.4-22.844z" fill="#4E8CAE"/>
    <path d="M157.5 25.312v14.062h14.062A14.062 14.062 0 01157.5 25.311zM123.75 28.125v25.312h25.312a25.309 25.309 0 01-23.385-15.626 25.314 25.314 0 01-1.927-9.687z" fill="#006095"/>
    <path d="M108.94 73.125h6.374v-9.493a67.625 67.625 0 01-6.374 9.493zM115.31 81.562h-11.25v5.625h11.25v-5.625z" fill="#6B9BB6"/>
</symbol>
<symbol id="icon-world" viewBox="0 0 235 235">
    <g clip-path="url(#icon-world_clip0_1_533)">
        <path d="M80.169 189.64c37.126 18.374 82.117 3.172 100.49-33.954s3.172-82.117-33.954-100.49c-37.126-18.374-82.118-3.172-100.49 33.954-18.374 37.126-3.172 82.118 33.954 100.49z" fill="#43ECC3"/>
        <path d="M180.67 155.68c4.304-8.696 6.765-17.824 7.533-26.94a76.208 76.208 0 01-1.603 3.455c-18.372 37.128-63.363 52.332-100.49 33.96-28.431-14.068-44.006-43.747-41.493-73.55-15.81 36.421-.42 79.23 35.563 97.035 37.127 18.372 82.118 3.168 100.49-33.96z" fill="#2AC09C"/>
        <g fill="#fff">
            <path d="M145.56 132.03l-1.339-1.354a2.249 2.249 0 01-.417-2.58l.139-.28c.748-1.511 2.831-1.693 3.83-.334l1.2 1.636a2.25 2.25 0 01-3.413 2.912zM122.48 47.437l3.062 5.084-.195 1.92c-.302 2.99 2.985 5.008 5.515 3.383l.913-.587 12.77 7.264a3.949 3.949 0 011.273 5.71c-1.489 2.109-4.568 2.245-6.238.275l-.728-.859a3.27 3.27 0 00-5.121.166l-1.758 2.37a3.269 3.269 0 01-3.145 1.28l-7.245-1.167a3.592 3.592 0 01-4.441-3.371l-.105-3.21a42.604 42.604 0 00-4.528-17.755l-.499-.992a75.286 75.286 0 00-26.063 5.325l-3.856 7.794c-.816 1.648 1.178 3.253 2.614 2.104l2.403-1.922c.261-.21.578-.337.912-.369l10.257-.966a8.426 8.426 0 014.945 10.091l-2.067 7.34c.084.862.266 1.711.543 2.531l1.27 3.756a9.1 9.1 0 007.325 6.094l8.45 1.217a4.67 4.67 0 003.942-1.296 4.671 4.671 0 014.14-1.262l7.854 1.476a4.665 4.665 0 012.302 1.155l2.565 2.363c2.551 2.35 6.644 1.59 8.182-1.518l2.461-4.973a5.2 5.2 0 016.857-2.406l6.394 2.98a5.186 5.186 0 012.784 6.167 5.188 5.188 0 002.782 6.166l8.903 4.157s4.932.117 8.406.134a75.328 75.328 0 00-3.602-10.556l-3.78-1.576a22.09 22.09 0 01-10.97-9.953l-.083-.156c-1.56-2.912-.085-6.483 3.038-7.438h.002c-6.425-7.58-14.465-14-23.936-18.688a74.89 74.89 0 00-24.504-7.282zM87.801 92.737l-13.574 4.865-6.388 7.962-.233.028a5.578 5.578 0 01-6.23-5.085l-.018-.222c-.185-2.263-3.343-2.548-3.916-.383a89655.6 89655.6 0 01-5.531 20.866 5.82 5.82 0 001.09 5.137l3.064 3.815a6.723 6.723 0 011.233 6.016l-2.986 10.701-.005.022a4.584 4.584 0 00.83 4.096l6.217 7.794a4.357 4.357 0 004.26 1.556l1.853-.37a4.357 4.357 0 015.037 3.056l1.933 6.641c.14.484.327.953.557 1.401l2.087 4.075a7.937 7.937 0 005.975 4.245l13.135 1.823a3.47 3.47 0 002.428-.568l2.677-1.819a3.474 3.474 0 014.41.42c1.795 1.8 1.111 4.856-1.28 5.718l-2.93 1.056c-3.058 1.103-4.219 4.821-2.332 7.468l2.453 3.44a74.853 74.853 0 0029.076-1.086l.591-.894a12.635 12.635 0 00-.563-14.722l-11.65-11.425c-2.757-3.35-6.3-3.307-9.169-3.92-1.169-.25-2.366-.237-3.55-.084-2.52.325-4.962-1.5-5.19-4.202l-.187-2.22c-.258-3.058-4.17-4.16-5.987-1.688l-1.425 1.937a11.847 11.847 0 01-6.151 4.334l-1.34.4c-2.606.78-5.189-1.279-5.013-3.99.149-2.313-1.01-4.507-3.108-5.487l-4.908-2.292a8.269 8.269 0 013.147-10.97l16.14-9.45a12.608 12.608 0 006.72-14.05l-.242-1.062a6.081 6.081 0 012.179-6.144l.119-.094c3.27-2.56 3.263-7.489-.001-10.026-2.524-1.961-5.282-4.11-7.264-5.654a6.347 6.347 0 00-6.04-.965zM136.78 138.61a4.915 4.915 0 01-4.736 4.711c-3.175.111-6.922.037-7.388-.884-.38-.752-1.323-3.342-2.229-5.916-1.069-3.036 1.014-6.265 4.222-6.537a4.919 4.919 0 013.266.894l4.807 3.422a4.917 4.917 0 012.062 4.209l-.004.101z"/>
        </g>
        <path d="M154.61 185.12c-19.118-5.12-40.513-15.342-61.057-29.251-22.563-15.277-41.379-33.16-53.165-50.495a74.468 74.468 0 00-1.467 8.434c12.263 16.355 30.174 32.87 51.211 47.113 19.067 12.91 38.913 22.743 57.161 28.427a75.26 75.26 0 007.316-4.228z" fill="#23B491"/>
        <path d="M131.28 194.51a12.637 12.637 0 00-.564-14.722l-5.175-6.66c-13.191 1.127-26.849-1.224-39.581-7.524-12.528-6.199-22.555-15.432-29.643-26.368l-2.009 7.2-.006.022c-.39 1.387-.143 2.876.757 4.003l6.29 7.887a4.36 4.36 0 004.261 1.556l1.852-.37a4.358 4.358 0 015.038 3.055l1.933 6.642c.14.484.327.953.556 1.401l2.087 4.075a7.938 7.938 0 005.976 4.245l13.135 1.823a3.469 3.469 0 002.428-.568l2.678-1.819a3.472 3.472 0 014.409.42c1.795 1.8 1.11 4.856-1.28 5.718l-2.93 1.056c-3.058 1.103-4.22 4.821-2.332 7.468l2.453 3.44a74.852 74.852 0 0029.076-1.086l.592-.894z" fill="#F2F2F2"/>
        <path d="M130.72 179.79l-3.827-4.925c-6.644-3.084-13.373-6.631-20.083-10.596a4.619 4.619 0 01-5.516-3.355 257.1 257.1 0 01-6.595-4.273l-1.137 1.548a11.831 11.831 0 01-3.134 2.934c14.063 9.494 28.54 17.311 42.484 23.025a12.586 12.586 0 00-2.192-4.358zM74.43 141.57c-8.36-6.907-15.897-14.102-22.371-21.36l-.148.56a5.817 5.817 0 001.09 5.136l3.063 3.816a6.72 6.72 0 011.442 4.918 228.663 228.663 0 0014.602 12.911 8.271 8.271 0 012.322-5.981z" fill="#CAD8EF"/>
        <path d="M25.29 80.447c-2.53-9.442-1.745-17.56 2.462-23.772 7.178-10.602 23.268-14.022 45.306-9.629a3.051 3.051 0 01-1.192 5.984c-19.193-3.826-33.431-1.251-39.062 7.066-5.718 8.445-2.662 22.866 8.386 39.566 11.72 17.718 30.897 36.088 53.995 51.728 23.098 15.639 47.276 26.62 68.08 30.925 19.608 4.056 34.133 1.539 39.85-6.906 6.007-8.871 2.402-24.101-9.891-41.786a3.051 3.051 0 015.009-3.482c14.015 20.16 17.543 37.452 9.935 48.689-7.278 10.75-23.664 14.109-46.14 9.46-21.566-4.462-46.52-15.772-70.263-31.848-23.744-16.076-43.512-35.046-55.663-53.414-5.346-8.08-8.963-15.684-10.811-22.581z" fill="#ddd"/>
    </g>
    
</symbol>
<symbol id="icon-youtube">
    <path d="M15.32 20.779l5.693-3.279-5.693-3.279v6.558z" fill="#BCBBF0"/>
    <path d="M17.5 0C7.836 0 0 7.836 0 17.5 0 27.163 7.836 35 17.5 35 27.163 35 35 27.163 35 17.5 35 7.836 27.163 0 17.5 0zm10.935 17.518s0 3.549-.45 5.26a2.74 2.74 0 01-1.928 1.928c-1.711.45-8.557.45-8.557.45s-6.828 0-8.557-.468a2.74 2.74 0 01-1.928-1.928c-.45-1.693-.45-5.26-.45-5.26s0-3.549.45-5.26a2.796 2.796 0 011.928-1.946c1.711-.45 8.557-.45 8.557-.45s6.846 0 8.557.468a2.74 2.74 0 011.928 1.928c.468 1.711.45 5.278.45 5.278z" fill="#BCBBF0"/>
</symbol>
</svg>